<?xml version="1.0" standalone="no"?>
<svg xmlns:xlink="http://www.w3.org/1999/xlink" id="wave" style="transform:rotate(0deg); transition: 0.3s" viewBox="0 0 1440 290" version="1.1" xmlns="http://www.w3.org/2000/svg"><defs><linearGradient id="sw-gradient-0" x1="0" x2="0" y1="1" y2="0"><stop stop-color="rgba(62, 83, 199, 1)" offset="0%"/><stop stop-color="rgba(163.609, 176.969, 250.767, 1)" offset="100%"/></linearGradient></defs><path style="transform:translate(0, 0px); opacity:1" fill="url(#sw-gradient-0)" d="M0,116L40,101.5C80,87,160,58,240,43.5C320,29,400,29,480,53.2C560,77,640,126,720,135.3C800,145,880,116,960,106.3C1040,97,1120,106,1200,111.2C1280,116,1360,116,1440,101.5C1520,87,1600,58,1680,82.2C1760,106,1840,184,1920,222.3C2000,261,2080,261,2160,256.2C2240,251,2320,242,2400,232C2480,222,2560,213,2640,212.7C2720,213,2800,222,2880,203C2960,184,3040,135,3120,101.5C3200,68,3280,48,3360,38.7C3440,29,3520,29,3600,62.8C3680,97,3760,164,3840,203C3920,242,4000,251,4080,236.8C4160,222,4240,184,4320,154.7C4400,126,4480,106,4560,111.2C4640,116,4720,145,4800,135.3C4880,126,4960,77,5040,72.5C5120,68,5200,106,5280,116C5360,126,5440,106,5520,82.2C5600,58,5680,29,5720,14.5L5760,0L5760,290L5720,290C5680,290,5600,290,5520,290C5440,290,5360,290,5280,290C5200,290,5120,290,5040,290C4960,290,4880,290,4800,290C4720,290,4640,290,4560,290C4480,290,4400,290,4320,290C4240,290,4160,290,4080,290C4000,290,3920,290,3840,290C3760,290,3680,290,3600,290C3520,290,3440,290,3360,290C3280,290,3200,290,3120,290C3040,290,2960,290,2880,290C2800,290,2720,290,2640,290C2560,290,2480,290,2400,290C2320,290,2240,290,2160,290C2080,290,2000,290,1920,290C1840,290,1760,290,1680,290C1600,290,1520,290,1440,290C1360,290,1280,290,1200,290C1120,290,1040,290,960,290C880,290,800,290,720,290C640,290,560,290,480,290C400,290,320,290,240,290C160,290,80,290,40,290L0,290Z"/></svg>