<?xml version="1.0" standalone="no"?>
<svg xmlns:xlink="http://www.w3.org/1999/xlink" id="wave" style="transform:rotate(180deg); transition: 0.3s" viewBox="0 0 1440 290" version="1.1" xmlns="http://www.w3.org/2000/svg"><defs><linearGradient id="sw-gradient-0" x1="0" x2="0" y1="1" y2="0"><stop stop-color="rgba(62, 83, 199, 1)" offset="0%"/><stop stop-color="rgba(163.609, 176.969, 250.767, 1)" offset="100%"/></linearGradient></defs><path style="transform:translate(0, 0px); opacity:1" fill="url(#sw-gradient-0)" d="M0,203L40,169.2C80,135,160,68,240,58C320,48,400,97,480,120.8C560,145,640,145,720,130.5C800,116,880,87,960,91.8C1040,97,1120,135,1200,140.2C1280,145,1360,116,1440,111.2C1520,106,1600,126,1680,116C1760,106,1840,68,1920,82.2C2000,97,2080,164,2160,174C2240,184,2320,135,2400,106.3C2480,77,2560,68,2640,87C2720,106,2800,155,2880,174C2960,193,3040,184,3120,188.5C3200,193,3280,213,3360,193.3C3440,174,3520,116,3600,77.3C3680,39,3760,19,3840,53.2C3920,87,4000,174,4080,212.7C4160,251,4240,242,4320,203C4400,164,4480,97,4560,82.2C4640,68,4720,106,4800,145C4880,184,4960,222,5040,227.2C5120,232,5200,203,5280,188.5C5360,174,5440,174,5520,149.8C5600,126,5680,77,5720,53.2L5760,29L5760,290L5720,290C5680,290,5600,290,5520,290C5440,290,5360,290,5280,290C5200,290,5120,290,5040,290C4960,290,4880,290,4800,290C4720,290,4640,290,4560,290C4480,290,4400,290,4320,290C4240,290,4160,290,4080,290C4000,290,3920,290,3840,290C3760,290,3680,290,3600,290C3520,290,3440,290,3360,290C3280,290,3200,290,3120,290C3040,290,2960,290,2880,290C2800,290,2720,290,2640,290C2560,290,2480,290,2400,290C2320,290,2240,290,2160,290C2080,290,2000,290,1920,290C1840,290,1760,290,1680,290C1600,290,1520,290,1440,290C1360,290,1280,290,1200,290C1120,290,1040,290,960,290C880,290,800,290,720,290C640,290,560,290,480,290C400,290,320,290,240,290C160,290,80,290,40,290L0,290Z"/></svg>