<?xml version="1.0" standalone="no"?><svg xmlns="http://www.w3.org/2000/svg" viewBox="0 0 1440 320"><path fill="#0099ff" fill-opacity="1" d="M0,160L26.7,149.3C53.3,139,107,117,160,138.7C213.3,160,267,224,320,234.7C373.3,245,427,203,480,165.3C533.3,128,587,96,640,101.3C693.3,107,747,149,800,160C853.3,171,907,149,960,117.3C1013.3,85,1067,43,1120,58.7C1173.3,75,1227,149,1280,197.3C1333.3,245,1387,267,1413,277.3L1440,288L1440,0L1413.3,0C1386.7,0,1333,0,1280,0C1226.7,0,1173,0,1120,0C1066.7,0,1013,0,960,0C906.7,0,853,0,800,0C746.7,0,693,0,640,0C586.7,0,533,0,480,0C426.7,0,373,0,320,0C266.7,0,213,0,160,0C106.7,0,53,0,27,0L0,0Z"></path></svg>